<svg width="107" height="86" viewBox="0 0 107 86" fill="none" xmlns="http://www.w3.org/2000/svg">
<path d="M37.45 43C49.2701 43 58.85 33.3754 58.85 21.5C58.85 9.62461 49.2701 0 37.45 0C25.6298 0 16.05 9.62461 16.05 21.5C16.05 33.3754 25.6298 43 37.45 43ZM52.43 48.375H49.6379C45.9264 50.0883 41.7969 51.0625 37.45 51.0625C33.1031 51.0625 28.9903 50.0883 25.262 48.375H22.47C10.0647 48.375 0 58.4867 0 70.95V77.9375C0 82.3887 3.59453 86 8.025 86H66.875C71.3054 86 74.9 82.3887 74.9 77.9375V70.95C74.9 58.4867 64.8353 48.375 52.43 48.375ZM106.432 26.8078L101.784 22.0879C101.015 21.2984 99.7607 21.2984 98.9749 22.0711L81.4537 39.5398L73.8467 31.8469C73.0776 31.0574 71.8237 31.0574 71.0379 31.8301L66.34 36.5164C65.5542 37.2891 65.5542 38.5488 66.3232 39.3383L79.9825 53.1621C80.7515 53.9516 82.0054 53.9516 82.7912 53.1789L106.415 29.6297C107.184 28.8402 107.201 27.5805 106.432 26.8078Z" fill="#0073FF"/>
</svg>
