<svg width="85" height="97" viewBox="0 0 85 97" fill="none" xmlns="http://www.w3.org/2000/svg">
<path d="M42.5 48.5C55.9141 48.5 66.7857 37.6443 66.7857 24.25C66.7857 10.8557 55.9141 0 42.5 0C29.0859 0 18.2143 10.8557 18.2143 24.25C18.2143 37.6443 29.0859 48.5 42.5 48.5ZM60.6763 54.6762L51.6071 90.9375L45.5357 65.1719L51.6071 54.5625H33.3929L39.4643 65.1719L33.3929 90.9375L24.3237 54.6762C10.7958 55.3203 0 66.3654 0 80.025V87.9062C0 92.9268 4.07924 97 9.10714 97H75.8929C80.9208 97 85 92.9268 85 87.9062V80.025C85 66.3654 74.2042 55.3203 60.6763 54.6762Z" fill="#0073FF"/>
</svg>
