<svg width="114" height="92" viewBox="0 0 114 92" fill="none" xmlns="http://www.w3.org/2000/svg">
<path d="M88.35 40.25C74.173 40.25 62.7 51.8237 62.7 66.125C62.7 80.4263 74.173 92 88.35 92C102.527 92 114 80.4263 114 66.125C114 51.8237 102.527 40.25 88.35 40.25ZM99.75 67.2552C99.75 68.2148 98.9716 69 98.0204 69H87.2314C86.2802 69 85.5018 68.2148 85.5018 67.2552V53.4966C85.5018 52.537 86.2802 51.7518 87.2314 51.7518H89.4704C90.4216 51.7518 91.2 52.537 91.2 53.4966V63.25H98.0204C98.9716 63.25 99.75 64.0352 99.75 64.9948V67.2552ZM88.35 34.5C89.3119 34.5 90.2595 34.5593 91.2 34.6455V25.875C91.2 21.275 87.21 17.25 82.65 17.25H68.4V8.625C68.4 4.025 64.41 0 59.85 0H31.35C26.79 0 22.8 4.025 22.8 8.625V17.25H8.55C3.99 17.25 0 21.275 0 25.875V40.25H70.3807C75.4751 36.6401 81.665 34.5 88.35 34.5ZM57 17.25H34.2V11.5H57V17.25ZM58.2148 57.5H37.05C35.4754 57.5 34.2 56.2134 34.2 54.625V46H0V71.875C0 76.475 3.99 80.5 8.55 80.5H60.461C58.2647 76.1803 57 71.3036 57 66.125C57 63.1314 57.4417 60.2456 58.2148 57.5Z" fill="#0073FF"/>
</svg>
