<svg width="109" height="76" viewBox="0 0 109 76" fill="none" xmlns="http://www.w3.org/2000/svg">
<path d="M32.7 38C43.2423 38 51.775 29.5009 51.775 19C51.775 8.49911 43.2423 0 32.7 0C22.1577 0 13.625 8.49911 13.625 19C13.625 29.5009 22.1577 38 32.7 38ZM45.78 43.4286H44.3664C40.8239 45.125 36.8897 46.1429 32.7 46.1429C28.5103 46.1429 24.5931 45.125 21.0336 43.4286H19.62C8.78812 43.4286 0 52.1821 0 62.9714V67.8571C0 72.3527 3.66172 76 8.175 76H57.225C61.7383 76 65.4 72.3527 65.4 67.8571V62.9714C65.4 52.1821 56.6119 43.4286 45.78 43.4286ZM81.75 38C90.7766 38 98.1 30.7054 98.1 21.7143C98.1 12.7232 90.7766 5.42857 81.75 5.42857C72.7234 5.42857 65.4 12.7232 65.4 21.7143C65.4 30.7054 72.7234 38 81.75 38ZM89.925 43.4286H89.2778C86.9105 44.2429 84.4069 44.7857 81.75 44.7857C79.0931 44.7857 76.5895 44.2429 74.2222 43.4286H73.575C70.1006 43.4286 66.8987 44.4295 64.0886 46.0411C68.2442 50.5027 70.85 56.4232 70.85 62.9714V69.4857C70.85 69.8589 70.7648 70.2152 70.7478 70.5714H100.825C105.338 70.5714 109 66.9241 109 62.4286C109 51.9277 100.467 43.4286 89.925 43.4286Z" fill="#0073FF"/>
</svg>
