<svg width="125" height="97" viewBox="0 0 125 97" fill="none" xmlns="http://www.w3.org/2000/svg">
<path d="M90.2778 34.6429C90.2778 15.5027 70.0738 0 45.1389 0C20.204 0 0 15.5027 0 34.6429C0 42.0694 3.0599 48.9114 8.24653 54.5625C5.33854 61.1013 0.542535 66.2978 0.477431 66.3627C0 66.8607 -0.130208 67.5969 0.15191 68.2464C0.434028 68.896 1.04167 69.2857 1.73611 69.2857C9.67882 69.2857 16.2543 66.6225 20.9852 63.8728C27.9731 67.2721 36.2413 69.2857 45.1389 69.2857C70.0738 69.2857 90.2778 53.783 90.2778 34.6429ZM116.753 82.2768C121.94 76.6473 125 69.7837 125 62.3571C125 47.8721 113.39 35.4656 96.9401 30.2908C97.1354 31.7199 97.2222 33.1705 97.2222 34.6429C97.2222 57.5721 73.8498 76.2143 45.1389 76.2143C42.7951 76.2143 40.5165 76.0411 38.2596 75.8029C45.0955 88.2527 61.1545 97 79.8611 97C88.7587 97 97.0269 95.008 104.015 91.5871C108.746 94.3368 115.321 97 123.264 97C123.958 97 124.588 96.5886 124.848 95.9607C125.13 95.3328 125 94.5966 124.523 94.077C124.457 94.0121 119.661 88.8373 116.753 82.2768Z" fill="#0073FF"/>
</svg>
